<svg xmlns="http://www.w3.org/2000/svg" xml:space="preserve" id="Layer_1" x="0" y="0" style="enable-background:new 0 0 900 900" version="1.1" viewBox="0 0 900 900"><path d="M532.5 217.5c1.4 7.3 2.1 14.6 2 22-.2 1.4 0 2.7.5 4 6.2-7.7 14-12.7 23.5-15 2-.3 4-.7 6-1 2.7.1 5-.6 7-2 7-1.4 14-2.9 21-4.5 5.7-2.4 10.2-6.2 13.5-11.5 6.6-12.4 12.6-25.1 18-38 1.2-3.9 2-7.9 2.5-12 1.4-2.4 2.2-5 2.5-8 4.8 15.6 6.6 31.6 5.5 48-1.1 7.8-2.1 15.8-3 24-3.8 21.7-10.6 42.3-20.5 62-2.2 3-4.3 6-6.5 9-.9.6-1.9.9-3 1a194.55 194.55 0 0 0-42-32c-12.1-7.7-25.1-13.7-39-18-6.6-3-13.6-5-21-6-5.2-1.5-10.5-2.9-16-4-5.4-1.5-11.1-2.2-17-2h-8c-2.7-.7-5.3-1.3-8-2 6.5-6.5 10-14.5 10.5-24 .3-17 .7-34 1-51 1.1-8 3.5-15.7 7-23 16.2-26.8 37.7-48.3 64.5-64.5 4-2.2 8.2-4.1 12.5-5.5 1.3.3 1.6 1 1 2-19.2 19.6-31.5 43-37 70-.9 10.8-.2 21.4 2 32 7.2 16.6 14 33.3 20.5 50z" class="st0"/><path d="M317.5 215.5c11.3 4.1 22.3 8.9 33 14.5 5.2 3.8 9.7 8.3 13.5 13.5.5-3.7.7-7.3.5-11 1.4-2 2.1-4.3 2-7 1.5-4.1 3.4-8.1 5.5-12 5.9-8.8 11.6-17.8 17-27 1-3.2 1.5-6.6 1.5-10-2.5-20.3-9-39.3-19.5-57-.9-1.6-2.1-2.9-3.5-4-.6-1-1.3-2-2-3l1-1c13.1 8.2 25.1 17.9 36 29a283.5 283.5 0 0 1 39 60c4.4 9.9 7.1 20.2 8 31-4.7.7-9.3 1.3-14 2-19.1.6-37.4 4.3-55 11-15.3 4.8-29.6 11.5-43 20a202.2 202.2 0 0 0-38 29c-1 .5-1.8 1.1-2.5 2-.4-9.5-3.7-17.9-10-25-11.4-11.2-22.6-22.6-33.5-34a76.47 76.47 0 0 1-17-42v-3c-.6-4.3-.9-8.6-1-13 .2-13.7.5-27.3 1-41 1.5-10.9 4.6-21.2 9.5-31 1.4 24.8 7.7 48.1 19 70 12.5 19.6 30 32.6 52.5 39zM714.5 235.5c15 .1 30 .4 45 1 11.6 1.2 22.6 4.4 33 9.5-28.9.8-55.2 9.1-79 25-15.7 12.6-26.1 28.8-31 48.5-3.4 8.6-6.9 17.3-10.5 26-4.1 7.4-9.6 13.6-16.5 18.5 8.3.2 16.3 1.7 24 4.5 11.1 7.4 22.4 14.6 34 21.5 2.7.2 5.3.3 8 .5 19.9-2.6 38.6-9 56-19 3.1-1.7 6.1-3.7 9-6 1 .5 1.2 1.2.5 2-7.3 10.4-15.1 20.4-23.5 30-2.3 1.3-4.3 3-6 5a251.72 251.72 0 0 1-59 39c-10 3.9-20.3 6.6-31 8-.7-5-1.3-10-2-15 .1-3.7-.3-7.4-1-11-1.7-14.8-5.1-29.2-10-43a175.7 175.7 0 0 0-19-41c-8.8-15.5-19.5-29.5-32-42 2.7-.7 5.3-1.3 8-2 3.2-.6 6.2-1.8 9-3.5 14.2-11.2 27.6-23.6 40-37 15.6-12.9 33.6-19.4 54-19.5z" class="st1"/><path d="M459.5 258.5c36.6 2.5 70 14.2 100 35 7.8 5.9 15.4 12.1 23 18.5 8.9 9.4 17.3 19.2 25 29.5 11 16.7 19.3 34.7 25 54-.2 3 0 6 .5 9l1-1c.3 3 .7 6 1 9 .9 1.1 1.7 2.1 2.5 3v2c-.1 4.9.5 9.6 2 14v4c.1 14.7-.6 29.4-2 44-5 29.9-16 57.3-33 82a206.09 206.09 0 0 1-67 58 233.97 233.97 0 0 1-78 21h-20c-2.7-.3-5.3-.7-8-1a40.6 40.6 0 0 0-14-2c-19.6-3-38.3-9-56-18a201.1 201.1 0 0 1-67-58c-21.3-30.5-33.3-64.5-36-102v-20a217 217 0 0 1 5-35c2.2-8.4 4.9-16.7 8-25 6-14 13-27.3 21-40 18.6-25 41.6-45 69-60 30.8-15.4 63.5-22.4 98-21z" style="fill-rule:evenodd;clip-rule:evenodd;fill:#fdd002"/><path d="M202.5 265.5c19.6 1 38.6 4.6 57 11 9.7 3.3 19 7.5 28 12.5 3 2 5.7 4.4 8 7-7.9 8.9-15.4 18-22.5 27.5-16.3 23-27.5 48.4-33.5 76a59.5 59.5 0 0 0-4.5 18c-.9 10.3-1.7 20.7-2.5 31-7.1-6.3-15.4-9.8-25-10.5-17.3-.3-34.7-.7-52-1-5-1.2-10-2.5-15-4-16.9-9-32.3-20.1-46-33.5-5.7-6.4-11-13-16-20-5.4-8.1-10.4-16.4-15-25-.2-1.2.1-2.2 1-3 10.5 9.7 22.2 17.7 35 24 20.9 13.4 43.5 17.3 68 11.5 11.1-3.7 21.8-8.2 32-13.5 8.4-4.7 17.4-7.7 27-9 6 .2 12 0 18-.5-.5-.7-1.2-1.2-2-1.5-3-2.2-5.5-4.8-7.5-8-6.4-13.6-10.4-28-12-43-.9-4-2.6-7.7-5-11a157.45 157.45 0 0 0-66.5-30.5c1.1-1.2 2.4-1.7 4-1.5 1.9-.8 3.9-1.2 6-1 13.6-1.5 27.3-2.2 41-2z" class="st1"/><path d="M233.5 466.5c-.2 7.3.8 14.3 3 21 1 4.1 2 8.1 3 12 .8 7.1 2.8 13.8 6 20 4.4 14.1 10.4 27.4 18 40 2.9 5.5 6.1 10.8 9.5 16 7.5 9.1 15 18.1 22.5 27-7.7-.1-14.7 2-21 6.5-12 11-23.6 22.3-35 34-15.5 12.4-33.2 19.3-53 20.5h-3c-21.7 2.6-43.1.9-64-5-4.6-1.1-8.9-2.9-13-5.5 23.9-1.4 46.6-7.4 68-18 21.4-12.9 35.4-31.4 42-55.5 3.3-10.3 7.4-20.3 12.5-30 4.2-5.5 9-10.3 14.5-14.5a58.5 58.5 0 0 1-32-9c-8.7-6.7-18.1-12.4-28-17-26.4.6-50.3 8.8-71.5 24.5-.3-1.4 0-2.7 1-4 7.9-11.4 16.7-22.1 26.5-32 9.3-8 18.9-15.5 29-22.5 10.1-6.4 20.4-12.2 31-17.5 5.4-1.5 10.7-3.4 16-5.5 5.9-1.5 11.9-2.3 18-2.5v17z" style="fill-rule:evenodd;clip-rule:evenodd;fill:#fdd00b"/><path d="M667.5 450.5c4.4 5.2 10.1 8.4 17 9.5 18.3 1.2 36.6 1.9 55 2 7.7.6 15 2.5 22 5.5 23.7 13.7 44 31.3 61 53 3.4 6.5 7.1 12.8 11 19 .6 2.8 1.6 5.5 3 8l-1 1a162.12 162.12 0 0 0-56-34.5 89.46 89.46 0 0 0-52-1c-10.2 4.3-20.2 8.8-30 13.5-6.8 3-13.8 5.5-21 7.5-7 1.4-14 1.7-21 1a50.1 50.1 0 0 1 15 24.5c2.5 10.6 4.7 21.2 6.5 32 2.4 4.1 5.3 7.9 8.5 11.5 18.6 13.1 39.3 21.6 62 25.5-3.7 1.8-7.7 3-12 3.5-14.3 2.5-28.6 3-43 1.5-5.1-1.5-10.4-2.1-16-2-4.1-.2-8.1-.9-12-2-2-1.4-4.3-2.1-7-2-19.6-3.8-37.6-11.5-54-23-.5 7.2 1.3 13.9 5.5 20 11.3 12.3 23 24.3 35 36 11.6 13.5 17.7 29.2 18.5 47 .9 14.6 1.2 29.3 1 44v8c-2.5 7.8-4.6 15.8-6.5 24-.9 3.1-2.4 5.8-4.5 8 0-5.6-.7-10.9-2-16-1.7-27.8-12.1-51.6-31-71.5a108.6 108.6 0 0 0-40-21.5c-12-3.8-23.3-9-34-15.5a81.4 81.4 0 0 1-10.5-11.5c.4 8.4-1.3 16.4-5 24-7 11.3-14 22.7-21 34 .7 26.3 8.6 50.3 23.5 72l-1 1a177.07 177.07 0 0 1-57.5-58c-6.2-9.7-11.7-19.7-16.5-30-2.8-8.2-5.3-16.5-7.5-25-.5-2.6-.7-5.3-.5-8h14c5.6.3 10.9-.3 16-2 7.4-.9 14.8-2.2 22-4 6.4-1.1 12.4-3.1 18-6 14.1-4.4 27.5-10.4 40-18a215.4 215.4 0 0 0 74-73c8-12.1 14.4-25.1 19-39 2.9-7.7 5.3-15.7 7-24 1.3-3.8 2.3-7.8 3-12 1.7-4 2.3-8.4 2-13 .4-4.3.8-8.7 1-13 .7-3.7 1.3-7.3 2-11z" class="st0"/><path d="M295.5 602.5c7.8 6.9 15.8 13.8 24 20.5 6.6 4.4 13.2 8.6 20 12.5a175.7 175.7 0 0 0 41 19c5.7 2.4 11.7 4.1 18 5 14 4.2 28.3 6.2 43 6 2 .7 4 1.3 6 2-5 5.7-8.2 12.4-9.5 20-.3 17-.7 34-1 51-.8 9.5-3.3 18.5-7.5 27-3 4.6-6 9.3-9 14-15.7 20.8-34.7 38-57 51.5-3.7 1.4-7.3 2.9-11 4.5l-1-1c13.3-14.9 23.8-31.5 31.5-50a89.8 89.8 0 0 0 3-57c-4.3-10.2-8.8-20.2-13.5-30-2.8-6.9-5.3-13.9-7.5-21-1.4-7.3-1.7-14.7-1-22-3.4 5.1-7.9 9-13.5 11.5-4.9 2.4-9.9 4.2-15 5.5a281.3 281.3 0 0 0-30 6.5c-3.4 2.1-6.6 4.6-9.5 7.5-11.3 15.7-19.2 33-23.5 52-1.5 3-2.4 6.4-2.5 10-.3-.9-.8-1.6-1.5-2-8.4-44.2-2.9-86.5 16.5-127 3.3-5.5 6.8-10.9 10.5-16z" class="st1"/></svg>